<svg
  xmlns="http://www.w3.org/2000/svg"
  viewBox="0 0 64 64"
  width="64"
  height="64"
>
  <defs>
    <linearGradient id="flame-gradient" x1="0%" y1="0%" x2="0%" y2="100%">
      <stop offset="0%" style="stop-color: #ff6f00; stop-opacity: 1;" />
      <stop offset="100%" style="stop-color: #ff4500; stop-opacity: 1;" />
    </linearGradient>
  </defs>
  <path
    d="M32 2c0 8.75-4 12.5-7.75 19.5C21.75 27.25 20 33 20 36c0 8 6 12 12 12s12-4 12-12c0-3-1.75-8.75-4.25-14.5C36 14.5 32 10.75 32 2z"
    fill="url(#flame-gradient)"
  />
  <path
    d="M32 52c-10 0-16-6-16-16 0-5.25 3-10.5 6.25-14.75C27.5 16.25 30 12 30 8c0 3 2.5 7.25 7.75 13.25C43 30 48 36 48 44c0 10-6 16-16 16z"
    fill="#ffcc33"
  />
</svg>
